# xmcd
#
# Track frame offsets:
#	150
#	16133
#	32501
#	48042
#	66317
#	83096
#	102310
#	117499
#	137042
#	155678
#	169238
#	184117
#	203977
#
# Disc length: 2902 seconds
#
# Revision: 0
# Processed by: cddbd v1.5.2PL0 Copyright (c) Steve Scherf et al.
# Submitted via: EasyCDDAExtractor 16.1.0.1
#
DISCID=ac0b540d
DTITLE=Ed Jordan - Tonight
DYEAR=1900
DGENRE=Pop
TTITLE0=Tonight
TTITLE1=Let Me
TTITLE2=Unfinished
TTITLE3=Some Things Never Change
TTITLE4=When She Smiles
TTITLE5=Can You Handle it
TTITLE6=I've Got Your Number
TTITLE7=Two Strangers
TTITLE8=One True Love  (The First Waltz)
TTITLE9=The Naked Bachelor
TTITLE10=Can't a Little
TTITLE11=Prison Island
TTITLE12=Wedding Day
EXTD=
EXTT0=
EXTT1=
EXTT2=
EXTT3=
EXTT4=
EXTT5=
EXTT6=
EXTT7=
EXTT8=
EXTT9=
EXTT10=
EXTT11=
EXTT12=
PLAYORDER=
